<?xml version="1.0" encoding="UTF-8" standalone="no"?>
<svg width="1400px" height="750px" viewBox="0 0 1400 750" version="1.1" xmlns="http://www.w3.org/2000/svg" xmlns:xlink="http://www.w3.org/1999/xlink">
    <!-- Generator: Sketch 39.1 (31720) - http://www.bohemiancoding.com/sketch -->
    <title>Desktop HD Copy</title>
    <desc>Created with Sketch.</desc>
    <defs>
        <rect id="path-1" x="661.232922" y="844.038233" width="233.990797" height="42.8286727" rx="4"></rect>
        <mask id="mask-2" maskContentUnits="userSpaceOnUse" maskUnits="objectBoundingBox" x="0" y="0" width="233.990797" height="42.8286727" fill="white">
            <use xlink:href="#path-1"></use>
        </mask>
        <rect id="path-3" x="1420.65841" y="626.761064" width="233.990797" height="42.8286727" rx="4"></rect>
        <mask id="mask-4" maskContentUnits="userSpaceOnUse" maskUnits="objectBoundingBox" x="0" y="0" width="233.990797" height="42.8286727" fill="white">
            <use xlink:href="#path-3"></use>
        </mask>
        <rect id="path-5" x="1578.39328" y="387.547258" width="233.990797" height="42.8286727" rx="4"></rect>
        <mask id="mask-6" maskContentUnits="userSpaceOnUse" maskUnits="objectBoundingBox" x="0" y="0" width="233.990797" height="42.8286727" fill="white">
            <use xlink:href="#path-5"></use>
        </mask>
        <rect id="path-7" x="1705.8347" y="609.002834" width="233.990797" height="42.8286727" rx="4"></rect>
        <mask id="mask-8" maskContentUnits="userSpaceOnUse" maskUnits="objectBoundingBox" x="0" y="0" width="233.990797" height="42.8286727" fill="white">
            <use xlink:href="#path-7"></use>
        </mask>
        <rect id="path-9" x="1865.65877" y="885.822303" width="233.990797" height="42.8286727" rx="4"></rect>
        <mask id="mask-10" maskContentUnits="userSpaceOnUse" maskUnits="objectBoundingBox" x="0" y="0" width="233.990797" height="42.8286727" fill="white">
            <use xlink:href="#path-9"></use>
        </mask>
        <rect id="path-11" x="1340.22407" y="230.856992" width="233.990797" height="42.8286727" rx="4"></rect>
        <mask id="mask-12" maskContentUnits="userSpaceOnUse" maskUnits="objectBoundingBox" x="0" y="0" width="233.990797" height="42.8286727" fill="white">
            <use xlink:href="#path-11"></use>
        </mask>
        <rect id="path-13" x="1184.57841" y="984.01487" width="233.990797" height="42.8286727" rx="4"></rect>
        <mask id="mask-14" maskContentUnits="userSpaceOnUse" maskUnits="objectBoundingBox" x="0" y="0" width="233.990797" height="42.8286727" fill="white">
            <use xlink:href="#path-13"></use>
        </mask>
        <rect id="path-15" x="1502.13735" y="1022.66514" width="233.990797" height="42.8286727" rx="4"></rect>
        <mask id="mask-16" maskContentUnits="userSpaceOnUse" maskUnits="objectBoundingBox" x="0" y="0" width="233.990797" height="42.8286727" fill="white">
            <use xlink:href="#path-15"></use>
        </mask>
        <rect id="path-17" x="1246.20992" y="579.753984" width="233.990797" height="42.8286727" rx="4"></rect>
        <mask id="mask-18" maskContentUnits="userSpaceOnUse" maskUnits="objectBoundingBox" x="0" y="0" width="233.990797" height="42.8286727" fill="white">
            <use xlink:href="#path-17"></use>
        </mask>
        <rect id="path-19" x="1104.14407" y="588.110798" width="233.990797" height="42.8286727" rx="4"></rect>
        <mask id="mask-20" maskContentUnits="userSpaceOnUse" maskUnits="objectBoundingBox" x="0" y="0" width="233.990797" height="42.8286727" fill="white">
            <use xlink:href="#path-19"></use>
        </mask>
        <rect id="path-21" x="1286.94938" y="666.455931" width="106.549381" height="42.8286727" rx="4"></rect>
        <mask id="mask-22" maskContentUnits="userSpaceOnUse" maskUnits="objectBoundingBox" x="0" y="0" width="106.549381" height="42.8286727" fill="white">
            <use xlink:href="#path-21"></use>
        </mask>
        <rect id="path-23" x="1397.67717" y="602.735223" width="106.549381" height="42.8286727" rx="4"></rect>
        <mask id="mask-24" maskContentUnits="userSpaceOnUse" maskUnits="objectBoundingBox" x="0" y="0" width="106.549381" height="42.8286727" fill="white">
            <use xlink:href="#path-23"></use>
        </mask>
        <rect id="path-25" x="1603.46372" y="705.106197" width="106.549381" height="42.8286727" rx="4"></rect>
        <mask id="mask-26" maskContentUnits="userSpaceOnUse" maskUnits="objectBoundingBox" x="0" y="0" width="106.549381" height="42.8286727" fill="white">
            <use xlink:href="#path-25"></use>
        </mask>
        <rect id="path-27" x="1665.09523" y="300.845311" width="106.549381" height="42.8286727" rx="4"></rect>
        <mask id="mask-28" maskContentUnits="userSpaceOnUse" maskUnits="objectBoundingBox" x="0" y="0" width="106.549381" height="42.8286727" fill="white">
            <use xlink:href="#path-27"></use>
        </mask>
        <rect id="path-29" x="1633.75717" y="245.481417" width="106.549381" height="42.8286727" rx="4"></rect>
        <mask id="mask-30" maskContentUnits="userSpaceOnUse" maskUnits="objectBoundingBox" x="0" y="0" width="106.549381" height="42.8286727" fill="white">
            <use xlink:href="#path-29"></use>
        </mask>
        <rect id="path-31" x="1333.95646" y="492.007435" width="106.549381" height="42.8286727" rx="4"></rect>
        <mask id="mask-32" maskContentUnits="userSpaceOnUse" maskUnits="objectBoundingBox" x="0" y="0" width="106.549381" height="42.8286727" fill="white">
            <use xlink:href="#path-31"></use>
        </mask>
        <rect id="path-33" x="794.941949" y="581.843188" width="106.549381" height="42.8286727" rx="4"></rect>
        <mask id="mask-34" maskContentUnits="userSpaceOnUse" maskUnits="objectBoundingBox" x="0" y="0" width="106.549381" height="42.8286727" fill="white">
            <use xlink:href="#path-33"></use>
        </mask>
        <rect id="path-35" x="589.1554" y="479.472214" width="106.549381" height="42.8286727" rx="4"></rect>
        <mask id="mask-36" maskContentUnits="userSpaceOnUse" maskUnits="objectBoundingBox" x="0" y="0" width="106.549381" height="42.8286727" fill="white">
            <use xlink:href="#path-35"></use>
        </mask>
        <rect id="path-37" x="829.413808" y="1152.19576" width="106.549381" height="42.8286727" rx="4"></rect>
        <mask id="mask-38" maskContentUnits="userSpaceOnUse" maskUnits="objectBoundingBox" x="0" y="0" width="106.549381" height="42.8286727" fill="white">
            <use xlink:href="#path-37"></use>
        </mask>
        <rect id="path-39" x="1225.31788" y="1071.76142" width="106.549381" height="42.8286727" rx="4"></rect>
        <mask id="mask-40" maskContentUnits="userSpaceOnUse" maskUnits="objectBoundingBox" x="0" y="0" width="106.549381" height="42.8286727" fill="white">
            <use xlink:href="#path-39"></use>
        </mask>
        <rect id="path-41" x="1336.04567" y="1006.99611" width="106.549381" height="42.8286727" rx="4"></rect>
        <mask id="mask-42" maskContentUnits="userSpaceOnUse" maskUnits="objectBoundingBox" x="0" y="0" width="106.549381" height="42.8286727" fill="white">
            <use xlink:href="#path-41"></use>
        </mask>
        <rect id="path-43" x="486.784426" y="797.031153" width="233.990797" height="42.8286727" rx="4"></rect>
        <mask id="mask-44" maskContentUnits="userSpaceOnUse" maskUnits="objectBoundingBox" x="0" y="0" width="233.990797" height="42.8286727" fill="white">
            <use xlink:href="#path-43"></use>
        </mask>
        <rect id="path-45" x="644.519294" y="558.861949" width="233.990797" height="42.8286727" rx="4"></rect>
        <mask id="mask-46" maskContentUnits="userSpaceOnUse" maskUnits="objectBoundingBox" x="0" y="0" width="233.990797" height="42.8286727" fill="white">
            <use xlink:href="#path-45"></use>
        </mask>
        <rect id="path-47" x="248.615222" y="639.296285" width="233.990797" height="42.8286727" rx="4"></rect>
        <mask id="mask-48" maskContentUnits="userSpaceOnUse" maskUnits="objectBoundingBox" x="0" y="0" width="233.990797" height="42.8286727" fill="white">
            <use xlink:href="#path-47"></use>
        </mask>
        <rect id="path-49" x="741.667259" y="950.587613" width="233.990797" height="106.549381" rx="4"></rect>
        <mask id="mask-50" maskContentUnits="userSpaceOnUse" maskUnits="objectBoundingBox" x="0" y="0" width="233.990797" height="106.549381" fill="white">
            <use xlink:href="#path-49"></use>
        </mask>
        <rect id="path-51" x="912.98195" y="481.561417" width="233.990797" height="106.549381" rx="4"></rect>
        <mask id="mask-52" maskContentUnits="userSpaceOnUse" maskUnits="objectBoundingBox" x="0" y="0" width="233.990797" height="106.549381" fill="white">
            <use xlink:href="#path-51"></use>
        </mask>
        <rect id="path-53" x="674.812745" y="324.871151" width="233.990797" height="106.549381" rx="4"></rect>
        <mask id="mask-54" maskContentUnits="userSpaceOnUse" maskUnits="objectBoundingBox" x="0" y="0" width="233.990797" height="106.549381" fill="white">
            <use xlink:href="#path-53"></use>
        </mask>
        <rect id="path-55" x="438.732745" y="682.124958" width="233.990797" height="106.549381" rx="4"></rect>
        <mask id="mask-56" maskContentUnits="userSpaceOnUse" maskUnits="objectBoundingBox" x="0" y="0" width="233.990797" height="106.549381" fill="white">
            <use xlink:href="#path-55"></use>
        </mask>
        <rect id="path-57" x="849.261241" y="370.833629" width="233.990797" height="106.549381" rx="4"></rect>
        <mask id="mask-58" maskContentUnits="userSpaceOnUse" maskUnits="objectBoundingBox" x="0" y="0" width="233.990797" height="106.549381" fill="white">
            <use xlink:href="#path-57"></use>
        </mask>
        <rect id="path-59" x="424.10832" y="911.937348" width="233.990797" height="106.549381" rx="4"></rect>
        <mask id="mask-60" maskContentUnits="userSpaceOnUse" maskUnits="objectBoundingBox" x="0" y="0" width="233.990797" height="106.549381" fill="white">
            <use xlink:href="#path-59"></use>
        </mask>
        <rect id="path-61" x="947.453808" y="1051.91399" width="233.990797" height="106.549381" rx="4"></rect>
        <mask id="mask-62" maskContentUnits="userSpaceOnUse" maskUnits="objectBoundingBox" x="0" y="0" width="233.990797" height="106.549381" fill="white">
            <use xlink:href="#path-61"></use>
        </mask>
        <rect id="path-63" x="1419.61381" y="337.406373" width="233.990797" height="106.549381" rx="4"></rect>
        <mask id="mask-64" maskContentUnits="userSpaceOnUse" maskUnits="objectBoundingBox" x="0" y="0" width="233.990797" height="106.549381" fill="white">
            <use xlink:href="#path-63"></use>
        </mask>
        <rect id="path-65" x="1421.70301" y="852.395047" width="233.990797" height="106.549381" rx="4"></rect>
        <mask id="mask-66" maskContentUnits="userSpaceOnUse" maskUnits="objectBoundingBox" x="0" y="0" width="233.990797" height="106.549381" fill="white">
            <use xlink:href="#path-65"></use>
        </mask>
        <rect id="path-67" x="1215.91646" y="750.024073" width="233.990797" height="106.549381" rx="4"></rect>
        <mask id="mask-68" maskContentUnits="userSpaceOnUse" maskUnits="objectBoundingBox" x="0" y="0" width="233.990797" height="106.549381" fill="white">
            <use xlink:href="#path-67"></use>
        </mask>
        <rect id="path-69" x="629.894869" y="788.674339" width="233.990797" height="42.8286727" rx="4"></rect>
        <mask id="mask-70" maskContentUnits="userSpaceOnUse" maskUnits="objectBoundingBox" x="0" y="0" width="233.990797" height="42.8286727" fill="white">
            <use xlink:href="#path-69"></use>
        </mask>
        <rect id="path-71" x="771.96071" y="1000.7285" width="489.918232" height="42.8286727" rx="4"></rect>
        <mask id="mask-72" maskContentUnits="userSpaceOnUse" maskUnits="objectBoundingBox" x="0" y="0" width="489.918232" height="42.8286727" fill="white">
            <use xlink:href="#path-71"></use>
        </mask>
        <rect id="path-73" x="373.967435" y="567.218763" width="489.918232" height="42.8286727" rx="4"></rect>
        <mask id="mask-74" maskContentUnits="userSpaceOnUse" maskUnits="objectBoundingBox" x="0" y="0" width="489.918232" height="42.8286727" fill="white">
            <use xlink:href="#path-73"></use>
        </mask>
        <rect id="path-75" x="1231.58549" y="1031.02195" width="489.918232" height="42.8286727" rx="4"></rect>
        <mask id="mask-76" maskContentUnits="userSpaceOnUse" maskUnits="objectBoundingBox" x="0" y="0" width="489.918232" height="42.8286727" fill="white">
            <use xlink:href="#path-75"></use>
        </mask>
        <rect id="path-77" x="455.446373" y="963.122835" width="489.918232" height="42.8286727" rx="4"></rect>
        <mask id="mask-78" maskContentUnits="userSpaceOnUse" maskUnits="objectBoundingBox" x="0" y="0" width="489.918232" height="42.8286727" fill="white">
            <use xlink:href="#path-77"></use>
        </mask>
        <rect id="path-79" x="944.320003" y="532.746904" width="489.918232" height="42.8286727" rx="4"></rect>
        <mask id="mask-80" maskContentUnits="userSpaceOnUse" maskUnits="objectBoundingBox" x="0" y="0" width="489.918232" height="42.8286727" fill="white">
            <use xlink:href="#path-79"></use>
        </mask>
        <rect id="path-81" x="-21.9366372" y="647.653099" width="489.918232" height="42.8286727" rx="4"></rect>
        <mask id="mask-82" maskContentUnits="userSpaceOnUse" maskUnits="objectBoundingBox" x="0" y="0" width="489.918232" height="42.8286727" fill="white">
            <use xlink:href="#path-81"></use>
        </mask>
        <rect id="path-83" x="1363.20531" y="253.838231" width="361.432213" height="42.8286727" rx="4"></rect>
        <mask id="mask-84" maskContentUnits="userSpaceOnUse" maskUnits="objectBoundingBox" x="0" y="0" width="361.432213" height="42.8286727" fill="white">
            <use xlink:href="#path-83"></use>
        </mask>
        <rect id="path-85" x="1435.28284" y="617.359648" width="489.918232" height="42.8286727" rx="4"></rect>
        <mask id="mask-86" maskContentUnits="userSpaceOnUse" maskUnits="objectBoundingBox" x="0" y="0" width="489.918232" height="42.8286727" fill="white">
            <use xlink:href="#path-85"></use>
        </mask>
        <rect id="path-87" x="1135.48213" y="864.930268" width="489.918232" height="42.8286727" rx="4"></rect>
        <mask id="mask-88" maskContentUnits="userSpaceOnUse" maskUnits="objectBoundingBox" x="0" y="0" width="489.918232" height="42.8286727" fill="white">
            <use xlink:href="#path-87"></use>
        </mask>
        <rect id="path-89" x="930.74018" y="703.016993" width="233.990797" height="233.990797" rx="4"></rect>
        <mask id="mask-90" maskContentUnits="userSpaceOnUse" maskUnits="objectBoundingBox" x="0" y="0" width="233.990797" height="233.990797" fill="white">
            <use xlink:href="#path-89"></use>
        </mask>
        <rect id="path-91" x="1103.09947" y="235.035399" width="233.990797" height="233.990797" rx="4"></rect>
        <mask id="mask-92" maskContentUnits="userSpaceOnUse" maskUnits="objectBoundingBox" x="0" y="0" width="233.990797" height="233.990797" fill="white">
            <use xlink:href="#path-91"></use>
        </mask>
        <rect id="path-93" x="1675.54124" y="715.552214" width="233.990797" height="233.990797" rx="4"></rect>
        <mask id="mask-94" maskContentUnits="userSpaceOnUse" maskUnits="objectBoundingBox" x="0" y="0" width="233.990797" height="233.990797" fill="white">
            <use xlink:href="#path-93"></use>
        </mask>
        <rect id="path-95" x="789.71894" y="1226.36248" width="233.990797" height="233.990797" rx="4"></rect>
        <mask id="mask-96" maskContentUnits="userSpaceOnUse" maskUnits="objectBoundingBox" x="0" y="0" width="233.990797" height="233.990797" fill="white">
            <use xlink:href="#path-95"></use>
        </mask>
        <rect id="path-97" x="842.993631" y="633.028674" width="106.549381" height="106.549381" rx="4"></rect>
        <mask id="mask-98" maskContentUnits="userSpaceOnUse" maskUnits="objectBoundingBox" x="0" y="0" width="106.549381" height="106.549381" fill="white">
            <use xlink:href="#path-97"></use>
        </mask>
        <rect id="path-99" x="1130.25912" y="1131.30372" width="106.549381" height="106.549381" rx="4"></rect>
        <mask id="mask-100" maskContentUnits="userSpaceOnUse" maskUnits="objectBoundingBox" x="0" y="0" width="106.549381" height="106.549381" fill="white">
            <use xlink:href="#path-99"></use>
        </mask>
        <rect id="path-101" x="1491.69133" y="479.472214" width="106.549381" height="106.549381" rx="4"></rect>
        <mask id="mask-102" maskContentUnits="userSpaceOnUse" maskUnits="objectBoundingBox" x="0" y="0" width="106.549381" height="106.549381" fill="white">
            <use xlink:href="#path-101"></use>
        </mask>
        <rect id="path-103" x="1634.80177" y="471.1154" width="106.549381" height="106.549381" rx="4"></rect>
        <mask id="mask-104" maskContentUnits="userSpaceOnUse" maskUnits="objectBoundingBox" x="0" y="0" width="106.549381" height="106.549381" fill="white">
            <use xlink:href="#path-103"></use>
        </mask>
        <rect id="path-105" x="1745.52956" y="407.394691" width="106.549381" height="106.549381" rx="4"></rect>
        <mask id="mask-106" maskContentUnits="userSpaceOnUse" maskUnits="objectBoundingBox" x="0" y="0" width="106.549381" height="106.549381" fill="white">
            <use xlink:href="#path-105"></use>
        </mask>
        <rect id="path-107" x="368.744426" y="833.592215" width="106.549381" height="106.549381" rx="4"></rect>
        <mask id="mask-108" maskContentUnits="userSpaceOnUse" maskUnits="objectBoundingBox" x="0" y="0" width="106.549381" height="106.549381" fill="white">
            <use xlink:href="#path-107"></use>
        </mask>
        <rect id="path-109" x="462.758585" y="483.650621" width="106.549381" height="106.549381" rx="4"></rect>
        <mask id="mask-110" maskContentUnits="userSpaceOnUse" maskUnits="objectBoundingBox" x="0" y="0" width="106.549381" height="106.549381" fill="white">
            <use xlink:href="#path-109"></use>
        </mask>
        <rect id="path-111" x="1160.55257" y="671.67894" width="106.549381" height="106.549381" rx="4"></rect>
        <mask id="mask-112" maskContentUnits="userSpaceOnUse" maskUnits="objectBoundingBox" x="0" y="0" width="106.549381" height="106.549381" fill="white">
            <use xlink:href="#path-111"></use>
        </mask>
        <rect id="path-113" x="700.92779" y="641.385489" width="106.549381" height="106.549381" rx="4"></rect>
        <mask id="mask-114" maskContentUnits="userSpaceOnUse" maskUnits="objectBoundingBox" x="0" y="0" width="106.549381" height="106.549381" fill="white">
            <use xlink:href="#path-113"></use>
        </mask>
        <rect id="path-115" x="551.549736" y="1069.67222" width="233.990797" height="233.990797" rx="4"></rect>
        <mask id="mask-116" maskContentUnits="userSpaceOnUse" maskUnits="objectBoundingBox" x="0" y="0" width="233.990797" height="233.990797" fill="white">
            <use xlink:href="#path-115"></use>
        </mask>
    </defs>
    <g id="Page-1" stroke="none" stroke-width="1" fill="none" fill-rule="evenodd" opacity="0.100000001">
        <g id="Desktop-HD-Copy" stroke="#FFFFFF" stroke-width="2">
            <g id="Group" transform="translate(627.618684, 397.010167) rotate(-345.000000) translate(-627.618684, -397.010167) translate(-451.881316, -386.989833)">
                <use id="Rectangle" mask="url(#mask-2)" transform="translate(778.228321, 865.452569) rotate(-30.000000) translate(-778.228321, -865.452569) " xlink:href="#path-1"></use>
                <use id="Rectangle-Copy-17" mask="url(#mask-4)" transform="translate(1537.653810, 648.175400) rotate(-30.000000) translate(-1537.653810, -648.175400) " xlink:href="#path-3"></use>
                <use id="Rectangle-Copy-42" mask="url(#mask-6)" transform="translate(1695.388678, 408.961594) rotate(-30.000000) translate(-1695.388678, -408.961594) " xlink:href="#path-5"></use>
                <use id="Rectangle-Copy-60" mask="url(#mask-8)" transform="translate(1822.830094, 630.417170) rotate(-30.000000) translate(-1822.830094, -630.417170) " xlink:href="#path-7"></use>
                <use id="Rectangle-Copy-70" mask="url(#mask-10)" transform="translate(1982.654165, 907.236640) rotate(-30.000000) translate(-1982.654165, -907.236640) " xlink:href="#path-9"></use>
                <use id="Rectangle-Copy-45" mask="url(#mask-12)" transform="translate(1457.219473, 252.271328) rotate(-30.000000) translate(-1457.219473, -252.271328) " xlink:href="#path-11"></use>
                <use id="Rectangle-Copy-22" mask="url(#mask-14)" transform="translate(1301.573809, 1005.429206) rotate(-30.000000) translate(-1301.573809, -1005.429206) " xlink:href="#path-13"></use>
                <use id="Rectangle-Copy-51" mask="url(#mask-16)" transform="translate(1619.132748, 1044.079472) rotate(-30.000000) translate(-1619.132748, -1044.079472) " xlink:href="#path-15"></use>
                <use id="Rectangle-Copy-16" mask="url(#mask-18)" transform="translate(1363.205314, 601.168320) rotate(-30.000000) translate(-1363.205314, -601.168320) " xlink:href="#path-17"></use>
                <use id="Rectangle-Copy-13" mask="url(#mask-20)" transform="translate(1221.139473, 609.525135) rotate(-30.000000) translate(-1221.139473, -609.525135) " xlink:href="#path-19"></use>
                <use id="Rectangle-Copy-18" mask="url(#mask-22)" transform="translate(1340.224075, 687.870268) rotate(-30.000000) translate(-1340.224075, -687.870268) " xlink:href="#path-21"></use>
                <use id="Rectangle-Copy-36" mask="url(#mask-24)" transform="translate(1450.951863, 624.149559) rotate(-30.000000) translate(-1450.951863, -624.149559) " xlink:href="#path-23"></use>
                <use id="Rectangle-Copy-75" mask="url(#mask-26)" transform="translate(1656.738412, 726.520533) rotate(-30.000000) translate(-1656.738412, -726.520533) " xlink:href="#path-25"></use>
                <use id="Rectangle-Copy-55" mask="url(#mask-28)" transform="translate(1718.369917, 322.259647) rotate(-30.000000) translate(-1718.369917, -322.259647) " xlink:href="#path-27"></use>
                <use id="Rectangle-Copy-56" mask="url(#mask-30)" transform="translate(1687.031863, 266.895753) rotate(-30.000000) translate(-1687.031863, -266.895753) " xlink:href="#path-29"></use>
                <use id="Rectangle-Copy-33" mask="url(#mask-32)" transform="translate(1387.231155, 513.421771) rotate(-30.000000) translate(-1387.231155, -513.421771) " xlink:href="#path-31"></use>
                <use id="Rectangle-Copy-26" mask="url(#mask-34)" transform="translate(848.216640, 603.257524) rotate(-30.000000) translate(-848.216640, -603.257524) " xlink:href="#path-33"></use>
                <use id="Rectangle-Copy-30" mask="url(#mask-36)" transform="translate(642.430090, 500.886550) rotate(-30.000000) translate(-642.430090, -500.886550) " xlink:href="#path-35"></use>
                <use id="Rectangle-Copy-19" mask="url(#mask-38)" transform="translate(882.688498, 1173.610092) rotate(-30.000000) translate(-882.688498, -1173.610092) " xlink:href="#path-37"></use>
                <use id="Rectangle-Copy-23" mask="url(#mask-40)" transform="translate(1278.592570, 1093.175755) rotate(-30.000000) translate(-1278.592570, -1093.175755) " xlink:href="#path-39"></use>
                <use id="Rectangle-Copy-25" mask="url(#mask-42)" transform="translate(1389.320358, 1028.410445) rotate(-30.000000) translate(-1389.320358, -1028.410445) " xlink:href="#path-41"></use>
                <use id="Rectangle-Copy-6" mask="url(#mask-44)" transform="translate(603.779825, 818.445489) rotate(-30.000000) translate(-603.779825, -818.445489) " xlink:href="#path-43"></use>
                <use id="Rectangle-Copy-39" mask="url(#mask-46)" transform="translate(761.514692, 580.276285) rotate(-30.000000) translate(-761.514692, -580.276285) " xlink:href="#path-45"></use>
                <use id="Rectangle-Copy-65" mask="url(#mask-48)" transform="translate(365.610621, 660.710621) rotate(-30.000000) translate(-365.610621, -660.710621) " xlink:href="#path-47"></use>
                <use id="Rectangle-Copy-5" mask="url(#mask-50)" transform="translate(858.662657, 1003.862304) rotate(-30.000000) translate(-858.662657, -1003.862304) " xlink:href="#path-49"></use>
                <use id="Rectangle-Copy-12" mask="url(#mask-52)" transform="translate(1029.977348, 534.836108) rotate(-30.000000) translate(-1029.977348, -534.836108) " xlink:href="#path-51"></use>
                <use id="Rectangle-Copy-68" mask="url(#mask-54)" transform="translate(791.808144, 378.145842) rotate(-30.000000) translate(-791.808144, -378.145842) " xlink:href="#path-53"></use>
                <use id="Rectangle-Copy-41" mask="url(#mask-56)" transform="translate(555.728143, 735.399648) rotate(-30.000000) translate(-555.728143, -735.399648) " xlink:href="#path-55"></use>
                <use id="Rectangle-Copy-28" mask="url(#mask-58)" transform="translate(966.256640, 424.108320) rotate(-30.000000) translate(-966.256640, -424.108320) " xlink:href="#path-57"></use>
                <use id="Rectangle-Copy-9" mask="url(#mask-60)" transform="translate(541.103718, 965.212038) rotate(-30.000000) translate(-541.103718, -965.212038) " xlink:href="#path-59"></use>
                <use id="Rectangle-Copy-10" mask="url(#mask-62)" transform="translate(1064.449207, 1105.188676) rotate(-30.000000) translate(-1064.449207, -1105.188676) " xlink:href="#path-61"></use>
                <use id="Rectangle-Copy-32" mask="url(#mask-64)" transform="translate(1536.609208, 390.681063) rotate(-30.000000) translate(-1536.609208, -390.681063) " xlink:href="#path-63"></use>
                <use id="Rectangle-Copy-24" mask="url(#mask-66)" transform="translate(1538.698412, 905.669737) rotate(-30.000000) translate(-1538.698412, -905.669737) " xlink:href="#path-65"></use>
                <use id="Rectangle-Copy-15" mask="url(#mask-68)" transform="translate(1332.911862, 803.298763) rotate(-30.000000) translate(-1332.911862, -803.298763) " xlink:href="#path-67"></use>
                <use id="Rectangle-Copy-7" mask="url(#mask-70)" transform="translate(746.890268, 810.088675) rotate(-30.000000) translate(-746.890268, -810.088675) " xlink:href="#path-69"></use>
                <use id="Rectangle-Copy-4" mask="url(#mask-72)" transform="translate(1016.919826, 1022.142835) rotate(-30.000000) translate(-1016.919826, -1022.142835) " xlink:href="#path-71"></use>
                <use id="Rectangle-Copy-40" mask="url(#mask-74)" transform="translate(618.926550, 588.633099) rotate(-30.000000) translate(-618.926550, -588.633099) " xlink:href="#path-73"></use>
                <use id="Rectangle-Copy-38" mask="url(#mask-76)" transform="translate(1476.544606, 1052.436286) rotate(-30.000000) translate(-1476.544606, -1052.436286) " xlink:href="#path-75"></use>
                <use id="Rectangle-Copy-8" mask="url(#mask-78)" transform="translate(700.405489, 984.537171) rotate(-30.000000) translate(-700.405489, -984.537171) " xlink:href="#path-77"></use>
                <use id="Rectangle-Copy-11" mask="url(#mask-80)" transform="translate(1189.279119, 554.161241) rotate(-30.000000) translate(-1189.279119, -554.161241) " xlink:href="#path-79"></use>
                <use id="Rectangle-Copy-67" mask="url(#mask-82)" transform="translate(223.022479, 669.067436) rotate(-30.000000) translate(-223.022479, -669.067436) " xlink:href="#path-81"></use>
                <use id="Rectangle-Copy-44" mask="url(#mask-84)" transform="translate(1543.921420, 275.252567) rotate(-30.000000) translate(-1543.921420, -275.252567) " xlink:href="#path-83"></use>
                <use id="Rectangle-Copy-29" mask="url(#mask-86)" transform="translate(1680.241952, 638.773984) rotate(-30.000000) translate(-1680.241952, -638.773984) " xlink:href="#path-85"></use>
                <use id="Rectangle-Copy-21" mask="url(#mask-88)" transform="translate(1380.441243, 886.344604) rotate(-30.000000) translate(-1380.441243, -886.344604) " xlink:href="#path-87"></use>
                <use id="Rectangle" mask="url(#mask-90)" transform="translate(1047.735578, 820.012392) rotate(-30.000000) translate(-1047.735578, -820.012392) " xlink:href="#path-89"></use>
                <use id="Rectangle-Copy-27" mask="url(#mask-92)" transform="translate(1220.094871, 352.030797) rotate(-30.000000) translate(-1220.094871, -352.030797) " xlink:href="#path-91"></use>
                <use id="Rectangle-Copy-31" mask="url(#mask-94)" transform="translate(1792.536642, 832.547613) rotate(-30.000000) translate(-1792.536642, -832.547613) " xlink:href="#path-93"></use>
                <use id="Rectangle-Copy-49" mask="url(#mask-96)" transform="translate(906.714339, 1343.357880) rotate(-30.000000) translate(-906.714339, -1343.357880) " xlink:href="#path-95"></use>
                <use id="Rectangle-Copy-2" mask="url(#mask-98)" transform="translate(896.268321, 686.303365) rotate(-30.000000) translate(-896.268321, -686.303365) " xlink:href="#path-97"></use>
                <use id="Rectangle-Copy-20" mask="url(#mask-100)" transform="translate(1183.533809, 1184.578411) rotate(-30.000000) translate(-1183.533809, -1184.578411) " xlink:href="#path-99"></use>
                <use id="Rectangle-Copy-34" mask="url(#mask-102)" transform="translate(1544.966022, 532.746904) rotate(-30.000000) translate(-1544.966022, -532.746904) " xlink:href="#path-101"></use>
                <use id="Rectangle-Copy-43" mask="url(#mask-104)" transform="translate(1688.076465, 524.390090) rotate(-30.000000) translate(-1688.076465, -524.390090) " xlink:href="#path-103"></use>
                <use id="Rectangle-Copy-61" mask="url(#mask-106)" transform="translate(1798.804253, 460.669382) rotate(-30.000000) translate(-1798.804253, -460.669382) " xlink:href="#path-105"></use>
                <use id="Rectangle-Copy-35" mask="url(#mask-108)" transform="translate(422.019116, 886.866905) rotate(-30.000000) translate(-422.019116, -886.866905) " xlink:href="#path-107"></use>
                <use id="Rectangle-Copy-66" mask="url(#mask-110)" transform="translate(516.033276, 536.925311) rotate(-30.000000) translate(-516.033276, -536.925311) " xlink:href="#path-109"></use>
                <use id="Rectangle-Copy-14" mask="url(#mask-112)" transform="translate(1213.827260, 724.953630) rotate(-30.000000) translate(-1213.827260, -724.953630) " xlink:href="#path-111"></use>
                <use id="Rectangle-Copy-3" mask="url(#mask-114)" transform="translate(754.202480, 694.660179) rotate(-30.000000) translate(-754.202480, -694.660179) " xlink:href="#path-113"></use>
                <use id="Rectangle-Copy" mask="url(#mask-116)" transform="translate(668.545135, 1186.667614) rotate(-30.000000) translate(-668.545135, -1186.667614) " xlink:href="#path-115"></use>
            </g>
        </g>
    </g>
</svg>